<svg width="218" height="51" viewBox="0 0 218 51" fill="none"
    xmlns="http://www.w3.org/2000/svg">
    <g clip-path="url(#clip0_0_1)">
        <g clip-path="url(#clip1_0_1)">
            <mask id="mask0_0_1" style="mask-type:luminance" maskUnits="userSpaceOnUse" x="0" y="1" width="180" height="50">
                <path d="M180 1.17285H0V50.7729H180V1.17285Z" fill="white"/>
            </mask>
            <g mask="url(#mask0_0_1)">
                <path d="M15.6884 22.8165L0 13.7983V20.9377V38.3917L5.8595 41.7735V41.7547L21.5478 50.7729V42.694V31.8159V26.1795L15.6884 22.8165ZM15.6884 41.191L5.8595 35.8553V23.4177L15.6884 28.8098V41.191ZM43.0957 13.2535L37.4819 10.0219L21.8503 18.702L19.9223 17.5559L35.3838 8.80073L29.4487 5.40012L14.3463 14.3056L12.4751 13.1971L27.7097 4.42316L22.0393 1.17285L0.567049 13.0468L6.61556 16.6165L18.9772 23.6431L22.0203 25.4468L22.0582 25.428L22.096 25.4468L23.5514 24.5638L43.0957 13.2535ZM28.3524 22.8165L22.4929 26.1795V31.8159V42.694V50.7729L38.1812 41.7547V41.7735L44.0408 38.3917V29.3735L38.1812 32.7553V35.8553L28.3524 41.191V28.8098L38.1812 23.2298V27.3068L44.0408 23.925V20.9189V13.7795L28.3524 22.8165Z" fill="#6352CD"/>
            </g>
        </g>
    </g>
    <path d="M66.5284 11.9091H74.1136L82.125 31.4545H82.4659L90.4773 11.9091H98.0625V41H92.0966V22.0653H91.8551L84.3267 40.858H80.2642L72.7358 21.9943H72.4943V41H66.5284V11.9091ZM108.386 11.9091L115.417 34.0114H115.687L122.732 11.9091H129.55L119.522 41H111.596L101.553 11.9091H108.386ZM133.052 41V11.9091H144.529C146.736 11.9091 148.615 12.3305 150.168 13.1733C151.721 14.0066 152.905 15.1667 153.719 16.6534C154.543 18.1307 154.955 19.8352 154.955 21.767C154.955 23.6989 154.539 25.4034 153.705 26.8807C152.872 28.358 151.665 29.5085 150.083 30.3324C148.511 31.1562 146.608 31.5682 144.373 31.5682H137.058V26.6392H143.379C144.562 26.6392 145.538 26.4356 146.305 26.0284C147.081 25.6117 147.659 25.0388 148.038 24.3097C148.426 23.571 148.62 22.7235 148.62 21.767C148.62 20.8011 148.426 19.9583 148.038 19.2386C147.659 18.5095 147.081 17.946 146.305 17.5483C145.528 17.1411 144.543 16.9375 143.35 16.9375H139.202V41H133.052ZM168.208 41V11.9091H187.81V16.9801H174.359V23.9119H186.802V28.983H174.359V35.929H187.867V41H168.208ZM198.467 11.9091L204.334 21.8239H204.561L210.456 11.9091H217.402L208.524 26.4545L217.601 41H210.527L204.561 31.071H204.334L198.368 41H191.322L200.428 26.4545L191.493 11.9091H198.467Z" fill="white"/>
    <defs>
        <clipPath id="clip0_0_1">
            <rect width="180" height="50" fill="white" transform="translate(0 0.96875)"/>
        </clipPath>
        <clipPath id="clip1_0_1">
            <rect width="180" height="49.6" fill="white" transform="translate(0 1.17285)"/>
        </clipPath>
    </defs>
</svg>
